Jump_normalized_precision_landing05_filtered_grf
version=1
nRows=22
nColumns=37
inDegrees=yes
endheader
time		1_ground_force_vx		1_ground_force_vy		1_ground_force_vz		1_ground_force_px		1_ground_force_py		1_ground_force_pz		1_ground_torque_x		1_ground_torque_y		1_ground_torque_z		2_ground_force_vx		2_ground_force_vy		2_ground_force_vz		2_ground_force_px		2_ground_force_py		2_ground_force_pz		2_ground_torque_x		2_ground_torque_y		2_ground_torque_z		3_ground_force_vx		3_ground_force_vy		3_ground_force_vz		3_ground_force_px		3_ground_force_py		3_ground_force_pz		3_ground_torque_x		3_ground_torque_y		3_ground_torque_z		4_ground_force_vx		4_ground_force_vy		4_ground_force_vz		4_ground_force_px		4_ground_force_py		4_ground_force_pz		4_ground_torque_x		4_ground_torque_y		4_ground_torque_z		
0.654500		0.000000		-0.000000		-0.000000		0.118404		0.000000		0.326900		-0.000000		-0.000000		0.000000		0.000000		0.000000		0.000000		-0.178590		0.000000		0.245785		0.000000		-0.000000		0.000000		17.003069		374.155078		-99.424037		0.380832		1.274200		1.890042		-1.030597		-22.678432		6.026328		25.438053		365.954164		-106.143719		-0.351716		1.267824		1.877749		1.513205		21.769108		-6.314053		
0.657909		0.000000		-0.000000		-0.000000		0.118404		0.000000		0.326900		-0.000000		-0.000000		0.000000		-0.000000		0.000000		0.000000		-0.178590		0.000000		0.245785		0.000000		-0.000000		0.000000		17.520353		354.685791		-101.998410		0.380831		1.274320		1.890083		-1.041202		-21.078447		6.061581		22.625247		344.432403		-108.229295		-0.351708		1.267856		1.877751		1.341463		20.421563		-6.416961		
0.661318		0.000000		-0.000000		-0.000000		0.118404		0.000000		0.326900		-0.000000		-0.000000		0.000000		-0.000000		-0.000000		0.000000		-0.178590		0.000000		0.245785		-0.000000		0.000000		-0.000000		18.228081		333.762108		-103.432094		0.380831		1.274469		1.890127		-1.059189		-19.394344		6.010210		19.847052		321.869767		-108.929478		-0.351700		1.267888		1.877739		1.171238		18.994529		-6.428253		
0.664727		0.000000		-0.000000		-0.000000		0.118404		0.000000		0.326900		-0.000000		-0.000000		0.000000		-0.000000		-0.000000		-0.000000		-0.178590		0.000000		0.245785		-0.000000		0.000000		-0.000000		19.127017		311.209472		-103.489592		0.380831		1.274622		1.890165		-1.084182		-17.640675		5.866175		17.012669		298.097998		-108.149535		-0.351680		1.267919		1.877705		0.997879		17.484903		-6.343482		
0.668136		-0.000000		0.000000		-0.000000		0.118404		0.000000		0.326900		0.000000		-0.000000		-0.000000		-0.000000		-0.000000		-0.000000		-0.178590		0.000000		0.245785		-0.000000		0.000000		-0.000000		20.193708		286.875757		-101.976104		0.380828		1.274760		1.890183		-1.114273		-15.829846		5.627013		14.029853		272.824259		-105.857774		-0.351634		1.267952		1.877637		0.816754		15.882519		-6.162517		
0.671545		-0.000000		0.000000		0.000000		0.118404		0.000000		0.326900		0.000000		0.000000		-0.000000		-0.000000		-0.000000		-0.000000		-0.178590		0.000000		0.245785		-0.000000		0.000000		-0.000000		21.401894		260.661131		-98.782823		0.380820		1.274875		1.890172		-1.147089		-13.970918		5.294545		10.833936		245.750975		-102.028656		-0.351562		1.267989		1.877529		0.625027		14.177716		-5.886168		
0.674955		-0.000000		0.000000		0.000000		0.118404		0.000000		0.326900		0.000000		0.000000		-0.000000		0.000000		-0.000000		-0.000000		-0.178590		0.000000		0.245785		-0.000000		0.000000		-0.000000		22.738374		232.586394		-93.895249		0.380801		1.274973		1.890126		-1.180339		-12.073594		4.874097		7.397937		216.738376		-96.647850		-0.351469		1.268029		1.877382		0.422219		12.369725		-5.515892		
0.678364		-0.000000		0.000000		0.000000		0.118404		0.000000		0.326900		0.000000		0.000000		-0.000000		0.000000		0.000000		0.000000		-0.178590		0.000000		0.245785		0.000000		-0.000000		0.000000		24.182672		202.886560		-87.432986		0.380766		1.275059		1.890031		-1.210302		-10.154490		4.375978		3.761290		185.998268		-89.725583		-0.351372		1.268075		1.877195		0.211874		10.476808		-5.053987		
0.681773		-0.000000		0.000000		0.000000		0.118404		0.000000		0.326900		0.000000		0.000000		-0.000000		0.000000		0.000000		0.000000		-0.178590		0.000000		0.245785		0.000000		-0.000000		0.000000		25.708200		172.106686		-79.593654		0.380715		1.275143		1.889888		-1.231198		-8.242928		3.812007		0.022143		154.202037		-81.345524		-0.351286		1.268124		1.876985		1.504756		19.879984		16.985039		
0.685182		0.000000		-0.000000		-0.000000		0.118404		0.000000		0.326900		-0.000000		-0.000000		0.000000		0.000000		0.000000		0.000000		-0.178590		0.000000		0.245785		0.000000		-0.000000		0.000000		27.213195		141.092158		-70.702617		0.380649		1.275229		1.889692		-1.230740		-6.381592		3.197784		-3.639368		122.475055		-71.675659		-0.351228		1.268175		1.876759		1.271368		16.689914		13.217753		
0.688591		0.000000		-0.000000		-0.000000		0.118404		0.000000		0.326900		-0.000000		-0.000000		0.000000		0.000000		0.000000		0.000000		-0.178590		0.000000		0.245785		0.000000		-0.000000		0.000000		28.501523		110.933127		-61.177164		0.380578		1.275316		1.889429		-1.188762		-4.627325		2.551782		-6.966632		92.257052		-60.994704		-0.351205		1.268223		1.876522		-0.366091		4.848481		-3.205468		
0.692000		0.000000		-0.000000		-0.000000		0.118404		0.000000		0.326900		-0.000000		-0.000000		0.000000		-0.000000		-0.000000		0.000000		-0.178590		0.000000		0.245785		0.000000		0.000000		-0.000000		29.291222		82.823953		-51.476021		0.380517		1.275399		1.889109		-1.079365		-3.052015		1.896862		-9.666983		65.033278		-49.716033		-0.351208		1.268265		1.876272		-0.485173		3.263932		-2.495180		
0.695409		0.000000		-0.000000		-0.000000		0.118404		0.000000		0.326900		-0.000000		-0.000000		0.000000		-0.000000		-0.000000		-0.000000		-0.178590		0.000000		0.245785		-0.000000		0.000000		-0.000000		29.258333		57.905498		-42.036978		0.380482		1.275470		1.888728		-0.880920		-1.743988		1.265875		-11.459737		42.075055		-38.355677		-0.351230		1.268292		1.875998		-0.533279		1.958331		-1.785107		
0.698818		0.000000		-0.000000		-0.000000		0.118404		0.000000		0.326900		-0.000000		-0.000000		0.000000		-0.000000		-0.000000		-0.000000		-0.178590		0.000000		0.245785		-0.000000		0.000000		-0.000000		28.153411		37.059202		-33.197460		0.380489		1.275522		1.888295		-0.601419		-0.792447		0.709479		-12.178237		24.128233		-27.523382		-0.351257		1.268297		1.875692		-0.492995		0.977360		-1.114607		
0.702227		-0.000000		0.000000		0.000000		0.118404		0.000000		0.326900		0.000000		0.000000		-0.000000		-0.000000		-0.000000		-0.000000		-0.178590		0.000000		0.245785		-0.000000		0.000000		-0.000000		25.905590		20.803670		-25.172893		0.380541		1.275560		1.887830		-0.304267		-0.244914		0.295900		-11.828044		11.345341		-17.867072		-0.351279		1.268287		1.875360		-0.355832		0.341984		-0.538049		
0.705636		-0.000000		0.000000		0.000000		0.118404		0.000000		0.326900		0.000000		0.000000		-0.000000		0.000000		-0.000000		-0.000000		-0.178590		0.000000		0.245785		-0.000000		0.000000		-0.000000		22.713865		9.202380		-18.083181		0.380642		1.275587		1.887352		-0.093454		-0.038039		0.074486		-10.623940		3.293936		-9.983429		-0.351289		1.268268		1.875013		-0.151991		0.047510		-0.143212		
0.709045		-0.000000		0.000000		0.000000		0.118404		0.000000		0.326900		0.000000		0.000000		-0.000000		0.000000		0.000000		-0.000000		-0.178590		0.000000		0.245785		0.000000		-0.000000		0.000000		19.024891		1.845205		-12.063706		0.380777		1.275614		1.886886		-0.026879		-0.002603		0.017042		-8.954113		-0.896989		-4.276711		-0.351288		1.268256		1.874675		-0.015002		-0.001484		-0.007192		
0.712455		-0.000000		0.000000		0.000000		0.118404		0.000000		0.326900		0.000000		0.000000		-0.000000		0.000000		0.000000		0.000000		-0.178590		0.000000		0.245785		0.000000		-0.000000		0.000000		15.426566		-2.046938		-7.324127		0.380925		1.275648		1.886449		-0.061232		0.008148		0.029052		-7.285093		-2.328094		-0.829202		-0.351278		1.268257		1.874360		-0.029156		-0.009330		-0.003290		
0.715864		0.000000		-0.000000		0.000000		0.118404		0.000000		0.326900		-0.000000		0.000000		0.000000		0.000000		0.000000		0.000000		-0.178590		0.000000		0.245785		0.000000		-0.000000		0.000000		12.462390		-3.463514		-4.093817		0.381056		1.275692		1.886067		-0.112618		0.031326		0.036959		-6.022180		-2.116547		0.660946		-0.351263		1.268271		1.874075		-0.057632		-0.020252		0.006334		
0.719273		0.000000		-0.000000		-0.000000		0.118404		0.000000		0.326900		-0.000000		-0.000000		0.000000		0.000000		0.000000		0.000000		-0.178590		0.000000		0.245785		0.000000		-0.000000		0.000000		10.457745		-3.402779		-2.439784		0.381153		1.275741		1.885740		-0.128252		0.041731		0.029918		-5.387212		-1.194824		0.791216		-0.351248		1.268283		1.873804		-0.033742		-0.007525		0.004967		
0.722682		0.000000		-0.000000		-0.000000		0.118404		0.000000		0.326900		-0.000000		-0.000000		0.000000		-0.000000		0.000000		0.000000		-0.178590		0.000000		0.245785		0.000000		-0.000000		0.000000		9.458893		-2.703022		-2.142326		0.381203		1.275788		1.885474		-0.096617		0.027626		0.021874		-5.378314		-0.201974		0.253558		-0.351232		1.268277		1.873529		0.015014		0.000530		-0.000683		
0.726091		0.000000		-0.000000		-0.000000		0.118404		0.000000		0.326900		-0.000000		-0.000000		0.000000		-0.000000		-0.000000		0.000000		-0.178590		0.000000		0.245785		-0.000000		0.000000		-0.000000		9.293775		-1.939253		-2.757272		0.381207		1.275827		1.885271		-0.041680		0.008709		0.012350		-5.813961		0.517506		-0.363392		-0.351209		1.268242		1.873236		0.040313		-0.003589		0.002521		
